<?xml version="1.0" encoding="utf-8"?>
<!-- Generator: Adobe Illustrator 21.0.0, SVG Export Plug-In . SVG Version: 6.00 Build 0)  -->
<svg version="1.1" id="Layer_1" xmlns="http://www.w3.org/2000/svg" xmlns:xlink="http://www.w3.org/1999/xlink" x="0px" y="0px"
	 viewBox="0 0 493 89.7" style="enable-background:new 0 0 493 89.7;" xml:space="preserve">
<style type="text/css">
	.st0{fill:#0D1E34;}
	.st1{clip-path:url(#SVGID_2_);}
	.st2{clip-path:url(#SVGID_4_);}
	.st3{clip-path:url(#SVGID_6_);}
	.st4{clip-path:url(#SVGID_8_);}
	.st5{clip-path:url(#SVGID_10_);}
	.st6{clip-path:url(#SVGID_12_);}
	.st7{clip-path:url(#SVGID_14_);}
	.st8{fill:none;}
</style>
<g>
	<g>
		<polygon class="st0" points="31.5,84.9 0,33.4 11.6,26.3 32.6,60.6 60.1,23.6 88.3,61.1 112,26.1 123.2,33.6 88.9,84.4 60.1,46.2 
					"/>
	</g>
	<g>
		<defs>
			<path id="SVGID_1_" d="M150.6,75.6c-4,0-6.9-0.8-8.6-2.4c-1.8-1.5-2.7-3.2-2.7-5.4c-0.1-4.8,3.4-7.3,10.4-7.4h14.4v4.5
				c0,4.6-0.9,7.6-2.8,8.9c-2,1.2-5.2,1.8-9.8,1.8C151.2,75.6,150.9,75.6,150.6,75.6 M135.3,28.8c-0.6,0.5-1.2,1-1.8,1.5
				c-0.9,0.8-1.7,1.8-2.4,2.8l9.5,7.4c0.3-0.6,0.7-1.1,1.2-1.6c0.9-1,1.9-1.7,3.1-2.2c1.7-0.6,4.1-1,7.1-1
				c8.3-0.2,12.4,2.5,12.3,7.9v6.5h-16.6c-6.4,0.1-11.2,1.9-14.5,5.3c-3.3,3.4-5,7.7-5,12.9c0,5.4,1.9,9.9,5.7,13.4
				c3.6,3.6,8.8,5.4,15.4,5.5h18.4l8.6-12.9V44.5c-0.1-7.5-2.4-12.8-6.9-15.9c-4.5-3-10.5-4.5-18-4.4c-0.2,0-0.4,0-0.7,0
				C144.4,24.1,139.3,25.7,135.3,28.8"/>
		</defs>
		<clipPath id="SVGID_2_">
			<use xlink:href="#SVGID_1_"  style="overflow:visible;"/>
		</clipPath>
		<g class="st1">
			<rect x="124.8" y="20.9" class="st0" width="54.6" height="69.5"/>
		</g>
	</g>
	<g>
		<defs>
			<path id="SVGID_3_" d="M193.1,6.2v18.8h-6v9.5h6v36.9c0,4.9,1.4,8.6,4.1,11.1c2.4,2.4,5.4,3.8,9.1,4l7.7-11.6h-4.7
				c-2.9,0.1-4.3-1.4-4.3-4.6V34.4h3.7l5.8-9.5h-9.5V6.2H193.1z"/>
		</defs>
		<clipPath id="SVGID_4_">
			<use xlink:href="#SVGID_3_"  style="overflow:visible;"/>
		</clipPath>
		<g class="st2">
			<rect x="183.8" y="2.9" class="st0" width="34" height="86.8"/>
		</g>
	</g>
	<g>
		<defs>
			<path id="SVGID_5_" d="M230.1,31.5c-5.5,5-8.4,13.1-8.5,24.3c0.2,11.1,3,19.1,8.5,24c5.3,4.9,11.5,7.4,18.6,7.4
				c0.5,0,0.9,0,1.4-0.1c4.1-0.2,7.7-1.3,10.9-3.1c2.5-1.4,4.8-3,6.8-5l-6.5-10.7c-3,4.2-7.1,6.4-12.2,6.4
				c-10.2,0.2-15.4-6.2-15.6-19.1c0.1-13,5.3-19.5,15.6-19.3c4.9,0.2,8.8,2.2,11.8,6l6.9-10.2c-2.1-2.1-4.4-3.8-6.9-5.2
				c-3.5-1.9-7.6-2.9-12.3-3c-0.1,0-0.2,0-0.3,0C241.5,24.2,235.4,26.6,230.1,31.5"/>
		</defs>
		<clipPath id="SVGID_6_">
			<use xlink:href="#SVGID_5_"  style="overflow:visible;"/>
		</clipPath>
		<g class="st3">
			<rect x="218.4" y="20.9" class="st0" width="52.8" height="69.5"/>
		</g>
	</g>
	<g>
		<defs>
			<path id="SVGID_7_" d="M280.3,0v86.5h12V49.8c0-4.3,1.1-7.6,3.4-9.9c2.2-2.3,5.1-3.4,8.5-3.4c3.5,0,6.3,1.1,8.5,3.4
				c2.2,2.3,3.3,5.5,3.3,9.9v36.7h12V45.6c-0.2-7-2.3-12.4-6.4-16c-4.1-3.6-8.6-5.4-13.6-5.4c-6.4,0-11.6,2.4-15.5,7.3h-0.2V0H280.3
				z"/>
		</defs>
		<clipPath id="SVGID_8_">
			<use xlink:href="#SVGID_7_"  style="overflow:visible;"/>
		</clipPath>
		<g class="st4">
			<rect x="277" y="-3.2" class="st0" width="54.2" height="93"/>
		</g>
	</g>
	<g>
		<defs>
			<path id="SVGID_9_" d="M362.8,81.9c-2.3-1.5-4-3.4-5.2-5.7c-1.2-2.4-2-5-2.4-8c-0.4-3-0.6-6.1-0.6-9.2c0-3.1,0.2-6.1,0.6-9.2
				c0.4-3,1.2-5.7,2.4-8.1c1.2-2.4,2.9-4.3,5.2-5.7c2.3-1.5,5.2-2.2,8.9-2.2c3.7,0,6.6,0.7,8.9,2.2c2.2,1.5,4,3.4,5.2,5.7
				c1.2,2.4,2,5.1,2.4,8.1c0.4,3,0.6,6.1,0.6,9.2c0,3.2-0.2,6.2-0.6,9.2c-0.4,3-1.2,5.7-2.4,8c-1.2,2.4-2.9,4.3-5.2,5.7
				c-2.2,1.5-5.2,2.2-8.9,2.2C368,84,365.1,83.3,362.8,81.9 M348.3,0.1v88.8h6.4v-7.7c2.7,3.5,5.5,5.8,8.4,6.9
				c2.9,1.1,6.1,1.6,9.5,1.6c3.2,0,6-0.5,8.6-1.4c2.5-1,4.6-2.2,6.2-3.8c3.1-3.1,5.1-6.9,6.2-11.5c1-4.6,1.6-9.3,1.6-14
				c0-4.7-0.5-9.4-1.6-14c-1-4.6-3.1-8.5-6.2-11.5c-1.6-1.6-3.6-2.8-6.2-3.8c-2.5-1-5.4-1.4-8.6-1.4c-3.4,0-6.6,0.5-9.5,1.6
				c-2.9,1.1-5.7,3.4-8.4,6.9V0.1H348.3z"/>
		</defs>
		<clipPath id="SVGID_10_">
			<use xlink:href="#SVGID_9_"  style="overflow:visible;"/>
		</clipPath>
		<g class="st5">
			<rect x="345.1" y="-3.1" class="st0" width="53.2" height="96"/>
		</g>
	</g>
	<g>
		<defs>
			<path id="SVGID_11_" d="M419,78.9c-1.3-1.3-2.2-2.7-2.9-4.2c-0.7-1.6-1.2-3.3-1.6-5.1c-0.4-1.8-0.6-3.6-0.7-5.4
				c-0.1-1.8-0.1-3.6-0.1-5.4c0-1.7,0-3.5,0.1-5.4c0.1-1.8,0.3-3.6,0.7-5.4c0.4-1.8,0.9-3.5,1.6-5.1c0.7-1.6,1.7-3,2.9-4.2
				c3.4-3.4,7.6-5.1,12.5-5.1c2.4,0,4.7,0.4,6.8,1.3c2.1,0.9,4,2.1,5.7,3.8c1.2,1.2,2.2,2.7,2.9,4.2c0.7,1.6,1.2,3.3,1.6,5.1
				c0.4,1.8,0.6,3.6,0.7,5.4c0.1,1.8,0.1,3.6,0.1,5.4c0,1.7,0,3.5-0.1,5.4c-0.1,1.8-0.3,3.6-0.7,5.4c-0.4,1.8-0.9,3.5-1.6,5.1
				c-0.7,1.6-1.7,3-2.9,4.2c-1.7,1.7-3.6,2.9-5.7,3.8c-2.1,0.9-4.4,1.3-6.8,1.3C426.6,84,422.5,82.3,419,78.9 M414.8,34.6
				c-3.2,3.2-5.2,6.9-6.1,11.2c-0.9,4.3-1.4,8.7-1.4,13c0,4.3,0.5,8.7,1.4,13c0.9,4.3,3,8.1,6.1,11.2c4.4,4.3,9.9,6.6,16.5,6.6h0.5
				c3.3,0,6.3-0.6,9-1.7c2.8-1.1,5.3-2.8,7.4-4.9c3.2-3.2,5.2-6.9,6.1-11.2c0.9-4.3,1.4-8.6,1.4-13c0-4.3-0.5-8.6-1.4-13
				c-0.9-4.3-3-8.1-6.1-11.2c-2.2-2.2-4.7-3.8-7.4-4.9c-2.8-1.1-5.9-1.7-9.3-1.7C424.8,28,419.2,30.2,414.8,34.6"/>
		</defs>
		<clipPath id="SVGID_12_">
			<use xlink:href="#SVGID_11_"  style="overflow:visible;"/>
		</clipPath>
		<g class="st6">
			<rect x="404.1" y="24.8" class="st0" width="55" height="68.1"/>
		</g>
	</g>
	<g>
		<defs>
			<path id="SVGID_13_" d="M473,9.6v19.2h-8.3v4.7h8.3v39.7c0,4.6,1.2,8.3,3.7,11.3c2.5,2.9,6.1,4.4,10.8,4.4h1.9l3.6-5.6h-4.4
				c-3.2,0-5.5-0.9-7-2.6c-1.5-1.7-2.2-4.2-2.2-7.4V33.5h11.1l2.6-4.7h-13.6V9.6H473z"/>
		</defs>
		<clipPath id="SVGID_14_">
			<use xlink:href="#SVGID_13_"  style="overflow:visible;"/>
		</clipPath>
		<g class="st7">
			<rect x="461.5" y="6.4" class="st0" width="34.7" height="85.8"/>
		</g>
	</g>
</g>
<rect x="-0.5" y="-714.2" class="st8" width="2154" height="1553"/>
</svg>
